<svg width="144" height="66" viewBox="0 0 144 66" fill="none" xmlns="http://www.w3.org/2000/svg">
<path d="M0 45.3524H10.4273L14.3846 35.9302H32.8523L36.8096 45.3524H47.2369L28.1411 0.753781H19.0958L0 45.3524ZM18.0279 27.2617L23.6184 13.8193L29.209 27.2617H18.0279Z" fill="url(#paint0_linear)"/>
<path d="M70.9667 46.1062C84.3463 46.1062 95.0877 37.2493 92.8892 18.342H69.7104V27.7014H82.5247C81.4568 33.1035 77.6251 36.4327 70.9667 36.4327C62.6752 36.4327 57.4615 30.5281 57.4615 23.0531C57.4615 15.5781 62.6752 9.67351 70.8411 9.67351C74.4216 9.67351 78.1905 11.1183 80.3262 13.9449H91.8213C88.6806 5.27646 79.8865 0 70.8411 0C57.2102 0 47.4111 10.1132 47.4111 23.0531C47.4111 35.993 57.2103 46.1062 70.9667 46.1062Z" fill="url(#paint1_linear)"/>
<path d="M121.204 46.1062C131.003 46.1062 140.299 39.8875 142.875 30.0256H132.008C130.123 34.1714 125.601 36.4327 121.204 36.4327C113.038 36.4327 107.824 30.5281 107.824 23.0531C107.824 15.5781 113.038 9.67351 121.204 9.67351C125.601 9.67351 130.123 11.9349 132.008 16.0806H142.875C140.299 6.21869 131.003 0 121.204 0C107.573 0 97.7735 10.1132 97.7735 23.0531C97.7735 35.993 107.573 46.1062 121.204 46.1062Z" fill="url(#paint2_linear)"/>
<path d="M0.468079 63.3804C0.518331 64.7372 1.69925 65.9181 3.57114 65.9181C5.22946 65.9181 6.41038 64.9633 6.41038 63.4557C6.41038 62.1241 5.63147 61.3452 4.27467 60.8552L3.13144 60.4406C2.26459 60.1265 1.85001 59.7496 1.85001 58.9959C1.85001 58.2547 2.51585 57.7898 3.37013 57.7898C4.09879 57.7898 4.82744 58.1793 5.05358 59.1089H6.20937C6.0963 57.9406 5.20433 56.6968 3.39526 56.6968C1.83745 56.6968 0.68165 57.5762 0.68165 59.0336C0.694213 60.2899 1.36005 61.0562 2.74198 61.5462L3.97316 61.9984C4.80231 62.2999 5.24202 62.7899 5.24202 63.4934C5.24202 64.3226 4.48824 64.8251 3.55858 64.8251C2.71686 64.8251 1.73694 64.3728 1.63644 63.3804H0.468079Z" fill="white"/>
<path d="M54.4579 61.3075C54.4579 58.7195 52.4227 56.6968 49.8473 56.6968C47.2844 56.6968 45.2366 58.7195 45.2366 61.3075C45.2366 63.8954 47.2844 65.9181 49.8473 65.9181C52.4227 65.9181 54.4579 63.8954 54.4579 61.3075ZM46.4176 61.3075C46.4176 59.3476 47.9 57.8024 49.8473 57.8024C51.8071 57.8024 53.2895 59.3476 53.2895 61.3075C53.2895 63.2673 51.8071 64.8125 49.8473 64.8125C47.9 64.8125 46.4176 63.2673 46.4176 61.3075Z" fill="white"/>
<path d="M93.9082 65.7673H95.0765V61.7597H98.255V60.6542H95.0765V57.9531H99.0967V56.8476H93.9082V65.7673Z" fill="white"/>
<path d="M140.08 65.7673H141.224V57.9531H144V56.8476H137.304V57.9531H140.08V65.7673Z" fill="white"/>
<defs>
<linearGradient id="paint0_linear" x1="142.832" y1="22.8437" x2="-0.0720794" y2="22.8437" gradientUnits="userSpaceOnUse">
<stop stop-color="#47A1F5"/>
<stop offset="1" stop-color="#FF748D"/>
</linearGradient>
<linearGradient id="paint1_linear" x1="142.832" y1="22.8437" x2="-0.0720794" y2="22.8437" gradientUnits="userSpaceOnUse">
<stop stop-color="#47A1F5"/>
<stop offset="1" stop-color="#FF748D"/>
</linearGradient>
<linearGradient id="paint2_linear" x1="142.832" y1="22.8437" x2="-0.0720794" y2="22.8437" gradientUnits="userSpaceOnUse">
<stop stop-color="#47A1F5"/>
<stop offset="1" stop-color="#FF748D"/>
</linearGradient>
</defs>
</svg>
